<?xml version="1.0" encoding="utf-8"?>
<!-- Generator: Adobe Illustrator 16.0.0, SVG Export Plug-In . SVG Version: 6.00 Build 0)  -->
<!DOCTYPE svg PUBLIC "-//W3C//DTD SVG 1.1//EN" "http://www.w3.org/Graphics/SVG/1.1/DTD/svg11.dtd">
<svg version="1.1" xmlns="http://www.w3.org/2000/svg" xmlns:xlink="http://www.w3.org/1999/xlink" x="0px" y="0px" width="682px"
	 height="459px" viewBox="0 0 682 459" enable-background="new 0 0 682 459" xml:space="preserve">
<g id="Layer_2">
</g>
<g id="Layer_1">
	<g>
		<g>
			<g>
				<path fill="#1B9B62" d="M518.628,360.584v-6.603h0.755v6.603H518.628z"/>
				<path fill="#1B9B62" d="M532.558,360.584l-0.007-5.444l-2.408,4.744h-0.451l-2.399-4.744v5.444h-0.713v-6.603h0.934l2.415,4.754
					l2.406-4.754h0.922v6.603H532.558z"/>
				<path fill="#1B9B62" d="M546.45,360.584l-0.007-5.444l-2.408,4.744h-0.453l-2.395-4.744v5.444h-0.718v-6.603h0.934l2.416,4.754
					l2.405-4.754h0.923v6.603H546.45z"/>
				<path fill="#1B9B62" d="M559.759,357.869c0,1.712-1.039,2.75-2.766,2.75c-1.736,0-2.781-1.038-2.781-2.75v-3.888h0.751v3.888
					c0,1.28,0.776,2.025,2.03,2.025c1.251,0,2.008-0.745,2.008-2.025v-3.888h0.758V357.869z"/>
				<path fill="#1B9B62" d="M571.523,360.584l-3.96-5.299v5.299h-0.758v-6.603h0.783l3.964,5.312v-5.312h0.744v6.603H571.523z"/>
				<path fill="#1B9B62" d="M580.265,354.709v2.169h3.326v0.725h-3.326v2.267h3.845v0.715h-4.601v-6.603h4.482v0.728H580.265z"/>
			</g>
			<g>
				<path fill="#1B9B62" d="M602.278,354.939l-0.456,0.575c-0.511-0.513-1.228-0.829-1.95-0.829c-1.495,0-2.691,1.155-2.691,2.604
					c0,1.439,1.196,2.604,2.691,2.604c0.722,0,1.432-0.303,1.95-0.795l0.463,0.524c-0.652,0.609-1.538,1.013-2.454,1.013
					c-1.904,0-3.41-1.482-3.41-3.347c0-1.85,1.524-3.309,3.441-3.309C600.765,353.981,601.643,354.346,602.278,354.939z"/>
				<path fill="#1B9B62" d="M613.577,360.602v-2.906h-3.979v2.906h-0.755v-6.605h0.755v2.98h3.979v-2.98h0.756v6.605H613.577z"/>
				<path fill="#1B9B62" d="M622.292,354.726v2.17h3.326v0.726h-3.326v2.263h3.846v0.718h-4.6v-6.605h4.479v0.729H622.292z"/>
				<path fill="#1B9B62" d="M638.114,354.939l-0.458,0.575c-0.506-0.513-1.224-0.829-1.947-0.829c-1.495,0-2.689,1.155-2.689,2.604
					c0,1.439,1.194,2.604,2.689,2.604c0.724,0,1.431-0.303,1.947-0.795l0.465,0.524c-0.65,0.609-1.536,1.013-2.453,1.013
					c-1.902,0-3.412-1.482-3.412-3.347c0-1.85,1.525-3.309,3.443-3.309C636.604,353.981,637.478,354.346,638.114,354.939z"/>
				<path fill="#1B9B62" d="M646.716,357.469l-1.28,1.404v1.729h-0.755v-6.605h0.755v3.805l3.548-3.805h0.893l-2.611,2.874
					l2.81,3.731h-0.92L646.716,357.469z"/>
			</g>
		</g>
		<g>
			<path fill="#1B9B62" d="M591.48,339.737l-0.058-0.109c-0.775-1.449-6.597-11.398-20.908-14.351
				c-2.52-0.519-5.269-0.844-8.332-0.844h-8.384c5.144,8.502,13.938,17.347,28.302,17.347h10.245h0.193L591.48,339.737z"/>
			<path fill="#1B9B62" d="M596.728,324.32l-0.058-0.111c-0.774-1.448-6.598-11.4-20.907-14.351
				c-2.52-0.519-5.269-0.845-8.332-0.845h-25.177c0,0,2.631,10.062,10.636,10.062h9.292c3.063,0,5.813,0.325,8.332,0.844
				c14.311,2.948,20.133,12.9,20.908,14.351l0.058,0.111l3.845,7.399h1.439h9.036L596.728,324.32z"/>
			<path fill="#1B9B62" d="M626.451,321.492c-1.391-0.697-3.606-1.681-4.952-2.008c-1.129-0.271-2.26-0.409-3.356-0.409
				c-8.614,0-13.133,8.497-13.179,8.583c-0.003,0.01-0.009,0.02-0.014,0.03l-7.323,14.092h13.453l4.801-9.247l0.002-0.004
				l0.813-1.564C616.71,330.935,620.062,323.303,626.451,321.492z"/>
		</g>
	</g>
	<g>
		<g>
			<g>
				<path fill="#1B9B62" d="M275.276,360.584v-6.603h0.754v6.603H275.276z"/>
				<path fill="#1B9B62" d="M289.206,360.584l-0.007-5.444l-2.408,4.744h-0.451l-2.398-4.744v5.444h-0.714v-6.603h0.934l2.415,4.754
					l2.406-4.754h0.922v6.603H289.206z"/>
				<path fill="#1B9B62" d="M303.098,360.584l-0.008-5.444l-2.408,4.744h-0.453l-2.395-4.744v5.444h-0.718v-6.603h0.935l2.415,4.754
					l2.405-4.754h0.924v6.603H303.098z"/>
				<path fill="#1B9B62" d="M316.407,357.869c0,1.712-1.038,2.75-2.766,2.75c-1.735,0-2.781-1.038-2.781-2.75v-3.888h0.751v3.888
					c0,1.28,0.775,2.025,2.029,2.025c1.252,0,2.008-0.745,2.008-2.025v-3.888h0.758V357.869z"/>
				<path fill="#1B9B62" d="M328.171,360.584l-3.96-5.299v5.299h-0.758v-6.603h0.782l3.964,5.312v-5.312h0.744v6.603H328.171z"/>
				<path fill="#1B9B62" d="M336.913,354.709v2.169h3.326v0.725h-3.326v2.267h3.844v0.715h-4.6v-6.603h4.481v0.728H336.913z"/>
			</g>
			<g>
				<path fill="#1B9B62" d="M358.926,354.939l-0.457,0.575c-0.511-0.513-1.228-0.829-1.95-0.829c-1.494,0-2.69,1.155-2.69,2.604
					c0,1.439,1.196,2.604,2.69,2.604c0.723,0,1.432-0.303,1.95-0.795l0.463,0.524c-0.651,0.609-1.538,1.013-2.454,1.013
					c-1.904,0-3.41-1.482-3.41-3.347c0-1.85,1.524-3.309,3.441-3.309C357.413,353.981,358.291,354.346,358.926,354.939z"/>
				<path fill="#1B9B62" d="M370.225,360.602v-2.906h-3.98v2.906h-0.754v-6.605h0.754v2.98h3.98v-2.98h0.755v6.605H370.225z"/>
				<path fill="#1B9B62" d="M378.939,354.726v2.17h3.327v0.726h-3.327v2.263h3.846v0.718h-4.6v-6.605h4.479v0.729H378.939z"/>
				<path fill="#1B9B62" d="M394.762,354.939l-0.458,0.575c-0.506-0.513-1.223-0.829-1.948-0.829c-1.494,0-2.689,1.155-2.689,2.604
					c0,1.439,1.195,2.604,2.689,2.604c0.725,0,1.432-0.303,1.948-0.795l0.465,0.524c-0.651,0.609-1.537,1.013-2.453,1.013
					c-1.901,0-3.412-1.482-3.412-3.347c0-1.85,1.525-3.309,3.443-3.309C393.251,353.981,394.125,354.346,394.762,354.939z"/>
				<path fill="#1B9B62" d="M403.365,357.469l-1.28,1.404v1.729h-0.756v-6.605h0.756v3.805l3.548-3.805h0.893l-2.612,2.874
					l2.811,3.731h-0.92L403.365,357.469z"/>
			</g>
		</g>
		<g>
			<path fill="#33B673" d="M348.127,339.737l-0.058-0.109c-0.775-1.449-6.598-11.398-20.908-14.351
				c-2.52-0.519-5.269-0.844-8.332-0.844h-8.384c5.145,8.502,13.938,17.347,28.303,17.347h10.244h0.193L348.127,339.737z"/>
			<path fill="#33B673" d="M353.375,324.32l-0.058-0.111c-0.774-1.448-6.597-11.4-20.907-14.351
				c-2.519-0.519-5.269-0.845-8.332-0.845h-25.177c0,0,2.631,10.062,10.636,10.062h9.292c3.063,0,5.813,0.325,8.332,0.844
				c14.311,2.948,20.133,12.9,20.908,14.351l0.058,0.111l3.845,7.399h1.44h9.035L353.375,324.32z"/>
			<path fill="#1B9B62" d="M383.099,321.492c-1.391-0.697-3.606-1.681-4.952-2.008c-1.13-0.271-2.261-0.409-3.356-0.409
				c-8.613,0-13.133,8.497-13.179,8.583c-0.004,0.01-0.01,0.02-0.014,0.03l-7.324,14.092h13.453l4.801-9.247l0.002-0.004
				l0.813-1.564C373.358,330.935,376.709,323.303,383.099,321.492z"/>
		</g>
	</g>
	<g>
		<g>
			<g>
				<path fill="#D1D3D4" d="M275.276,255.26v-6.604h0.754v6.604H275.276z"/>
				<path fill="#D1D3D4" d="M289.206,255.26l-0.007-5.444l-2.408,4.744h-0.451l-2.398-4.744v5.444h-0.714v-6.604h0.934l2.415,4.754
					l2.406-4.754h0.922v6.604H289.206z"/>
				<path fill="#D1D3D4" d="M303.098,255.26l-0.008-5.444l-2.408,4.744h-0.453l-2.395-4.744v5.444h-0.718v-6.604h0.935l2.415,4.754
					l2.405-4.754h0.924v6.604H303.098z"/>
				<path fill="#D1D3D4" d="M316.407,252.543c0,1.714-1.038,2.751-2.766,2.751c-1.735,0-2.781-1.037-2.781-2.751v-3.887h0.751v3.887
					c0,1.281,0.775,2.026,2.029,2.026c1.252,0,2.008-0.745,2.008-2.026v-3.887h0.758V252.543z"/>
				<path fill="#D1D3D4" d="M328.171,255.26l-3.96-5.3v5.3h-0.758v-6.604h0.782l3.964,5.312v-5.312h0.744v6.604H328.171z"/>
				<path fill="#D1D3D4" d="M336.913,249.383v2.17h3.326v0.725h-3.326v2.268h3.844v0.715h-4.6v-6.604h4.481v0.727H336.913z"/>
			</g>
			<g>
				<path fill="#D1D3D4" d="M358.926,249.614l-0.457,0.576c-0.511-0.515-1.228-0.829-1.95-0.829c-1.494,0-2.69,1.154-2.69,2.604
					c0,1.439,1.196,2.604,2.69,2.604c0.723,0,1.432-0.303,1.95-0.795l0.463,0.524c-0.651,0.61-1.538,1.012-2.454,1.012
					c-1.904,0-3.41-1.481-3.41-3.346c0-1.85,1.524-3.309,3.441-3.309C357.413,248.656,358.291,249.021,358.926,249.614z"/>
				<path fill="#D1D3D4" d="M370.225,255.276v-2.907h-3.98v2.907h-0.754v-6.604h0.754v2.98h3.98v-2.98h0.755v6.604H370.225z"/>
				<path fill="#D1D3D4" d="M378.939,249.4v2.171h3.327v0.725h-3.327v2.264h3.846v0.717h-4.6v-6.604h4.479v0.729H378.939z"/>
				<path fill="#D1D3D4" d="M394.762,249.614l-0.458,0.576c-0.506-0.515-1.223-0.829-1.948-0.829c-1.494,0-2.689,1.154-2.689,2.604
					c0,1.439,1.195,2.604,2.689,2.604c0.725,0,1.432-0.303,1.948-0.795l0.465,0.524c-0.651,0.61-1.537,1.012-2.453,1.012
					c-1.901,0-3.412-1.481-3.412-3.346c0-1.85,1.525-3.309,3.443-3.309C393.251,248.656,394.125,249.021,394.762,249.614z"/>
				<path fill="#D1D3D4" d="M403.365,252.145l-1.28,1.403v1.729h-0.756v-6.604h0.756v3.805l3.548-3.805h0.893l-2.612,2.873
					l2.811,3.731h-0.92L403.365,252.145z"/>
			</g>
		</g>
		<g>
			<path fill="#F1F2F2" d="M348.127,234.412l-0.058-0.109c-0.775-1.449-6.598-11.398-20.908-14.35
				c-2.52-0.52-5.269-0.845-8.332-0.845h-8.384c5.145,8.502,13.938,17.347,28.303,17.347h10.244h0.193L348.127,234.412z"/>
			<path fill="#F1F2F2" d="M353.375,218.995l-0.058-0.112c-0.774-1.446-6.597-11.399-20.907-14.35
				c-2.519-0.519-5.269-0.844-8.332-0.844h-25.177c0,0,2.631,10.061,10.636,10.061h9.292c3.063,0,5.813,0.325,8.332,0.844
				c14.311,2.948,20.133,12.9,20.908,14.35l0.058,0.112l3.845,7.399h1.44h9.035L353.375,218.995z"/>
			<path fill="#D1D3D4" d="M383.099,216.167c-1.391-0.697-3.606-1.68-4.952-2.007c-1.13-0.271-2.261-0.41-3.356-0.41
				c-8.613,0-13.133,8.496-13.179,8.583c-0.004,0.01-0.01,0.021-0.014,0.03l-7.324,14.092h13.453l4.801-9.246l0.002-0.005
				l0.813-1.564C373.358,225.609,376.709,217.978,383.099,216.167z"/>
		</g>
	</g>
	<g>
		<g>
			<g>
				<path fill="#414042" d="M275.276,149.934v-6.603h0.754v6.603H275.276z"/>
				<path fill="#414042" d="M289.206,149.934l-0.007-5.443l-2.408,4.744h-0.451l-2.398-4.744v5.443h-0.714v-6.603h0.934l2.415,4.753
					l2.406-4.753h0.922v6.603H289.206z"/>
				<path fill="#414042" d="M303.098,149.934l-0.008-5.443l-2.408,4.744h-0.453l-2.395-4.744v5.443h-0.718v-6.603h0.935l2.415,4.753
					l2.405-4.753h0.924v6.603H303.098z"/>
				<path fill="#414042" d="M316.407,147.218c0,1.714-1.038,2.751-2.766,2.751c-1.735,0-2.781-1.037-2.781-2.751v-3.887h0.751v3.887
					c0,1.281,0.775,2.026,2.029,2.026c1.252,0,2.008-0.745,2.008-2.026v-3.887h0.758V147.218z"/>
				<path fill="#414042" d="M328.171,149.934l-3.96-5.299v5.299h-0.758v-6.603h0.782l3.964,5.312v-5.312h0.744v6.603H328.171z"/>
				<path fill="#414042" d="M336.913,144.059v2.169h3.326v0.726h-3.326v2.266h3.844v0.715h-4.6v-6.603h4.481v0.728H336.913z"/>
			</g>
			<g>
				<path fill="#414042" d="M358.926,144.29l-0.457,0.575c-0.511-0.515-1.228-0.829-1.95-0.829c-1.494,0-2.69,1.154-2.69,2.604
					c0,1.44,1.196,2.604,2.69,2.604c0.723,0,1.432-0.303,1.95-0.795l0.463,0.524c-0.651,0.61-1.538,1.013-2.454,1.013
					c-1.904,0-3.41-1.482-3.41-3.347c0-1.849,1.524-3.309,3.441-3.309C357.413,143.331,358.291,143.696,358.926,144.29z"/>
				<path fill="#414042" d="M370.225,149.951v-2.907h-3.98v2.907h-0.754v-6.605h0.754v2.981h3.98v-2.981h0.755v6.605H370.225z"/>
				<path fill="#414042" d="M378.939,144.076v2.17h3.327v0.725h-3.327v2.264h3.846v0.717h-4.6v-6.605h4.479v0.73H378.939z"/>
				<path fill="#414042" d="M394.762,144.29l-0.458,0.575c-0.506-0.515-1.223-0.829-1.948-0.829c-1.494,0-2.689,1.154-2.689,2.604
					c0,1.44,1.195,2.604,2.689,2.604c0.725,0,1.432-0.303,1.948-0.795l0.465,0.524c-0.651,0.61-1.537,1.013-2.453,1.013
					c-1.901,0-3.412-1.482-3.412-3.347c0-1.849,1.525-3.309,3.443-3.309C393.251,143.331,394.125,143.696,394.762,144.29z"/>
				<path fill="#414042" d="M403.365,146.818l-1.28,1.405v1.728h-0.756v-6.605h0.756v3.806l3.548-3.806h0.893l-2.612,2.875
					l2.811,3.73h-0.92L403.365,146.818z"/>
			</g>
		</g>
		<g>
			<path fill="#333333" d="M348.127,129.088l-0.058-0.109c-0.775-1.45-6.598-11.399-20.908-14.351
				c-2.52-0.52-5.269-0.844-8.332-0.844h-8.384c5.145,8.502,13.938,17.347,28.303,17.347h10.244h0.193L348.127,129.088z"/>
			<path fill="#333333" d="M353.375,113.67l-0.058-0.112c-0.774-1.447-6.597-11.398-20.907-14.351
				c-2.519-0.518-5.269-0.844-8.332-0.844h-25.177c0,0,2.631,10.062,10.636,10.062h9.292c3.063,0,5.813,0.325,8.332,0.844
				c14.311,2.948,20.133,12.9,20.908,14.35l0.058,0.112l3.845,7.4h1.44h9.035L353.375,113.67z"/>
			<path fill="#414042" d="M383.099,110.842c-1.391-0.696-3.606-1.68-4.952-2.008c-1.13-0.27-2.261-0.409-3.356-0.409
				c-8.613,0-13.133,8.496-13.179,8.583c-0.004,0.011-0.01,0.021-0.014,0.03l-7.324,14.093h13.453l4.801-9.247l0.002-0.005
				l0.813-1.563C373.358,120.285,376.709,112.652,383.099,110.842z"/>
		</g>
	</g>
	<g>
		<g>
			<g>
				<path fill="#33B673" d="M31.924,360.584v-6.603h0.755v6.603H31.924z"/>
				<path fill="#33B673" d="M45.854,360.584l-0.007-5.444l-2.408,4.744h-0.45l-2.399-4.744v5.444h-0.713v-6.603h0.933l2.415,4.754
					l2.406-4.754h0.922v6.603H45.854z"/>
				<path fill="#33B673" d="M59.746,360.584l-0.007-5.444l-2.408,4.744h-0.453l-2.396-4.744v5.444h-0.717v-6.603h0.934l2.416,4.754
					l2.404-4.754h0.924v6.603H59.746z"/>
				<path fill="#33B673" d="M73.055,357.869c0,1.712-1.039,2.75-2.765,2.75c-1.736,0-2.782-1.038-2.782-2.75v-3.888h0.751v3.888
					c0,1.28,0.775,2.025,2.03,2.025c1.251,0,2.007-0.745,2.007-2.025v-3.888h0.758V357.869z"/>
				<path fill="#33B673" d="M84.819,360.584l-3.961-5.299v5.299H80.1v-6.603h0.783l3.964,5.312v-5.312h0.744v6.603H84.819z"/>
				<path fill="#33B673" d="M93.561,354.709v2.169h3.326v0.725h-3.326v2.267h3.844v0.715h-4.6v-6.603h4.482v0.728H93.561z"/>
			</g>
			<g>
				<path fill="#33B673" d="M115.574,354.939l-0.457,0.575c-0.511-0.513-1.228-0.829-1.951-0.829c-1.494,0-2.69,1.155-2.69,2.604
					c0,1.439,1.196,2.604,2.69,2.604c0.723,0,1.432-0.303,1.951-0.795l0.462,0.524c-0.651,0.609-1.538,1.013-2.454,1.013
					c-1.903,0-3.41-1.482-3.41-3.347c0-1.85,1.524-3.309,3.441-3.309C114.061,353.981,114.938,354.346,115.574,354.939z"/>
				<path fill="#33B673" d="M126.873,360.602v-2.906h-3.98v2.906h-0.754v-6.605h0.754v2.98h3.98v-2.98h0.755v6.605H126.873z"/>
				<path fill="#33B673" d="M135.587,354.726v2.17h3.326v0.726h-3.326v2.263h3.845v0.718h-4.6v-6.605h4.479v0.729H135.587z"/>
				<path fill="#33B673" d="M151.41,354.939l-0.458,0.575c-0.506-0.513-1.223-0.829-1.947-0.829c-1.495,0-2.689,1.155-2.689,2.604
					c0,1.439,1.194,2.604,2.689,2.604c0.725,0,1.431-0.303,1.947-0.795l0.465,0.524c-0.65,0.609-1.536,1.013-2.453,1.013
					c-1.901,0-3.412-1.482-3.412-3.347c0-1.85,1.525-3.309,3.443-3.309C149.899,353.981,150.773,354.346,151.41,354.939z"/>
				<path fill="#33B673" d="M160.012,357.469l-1.28,1.404v1.729h-0.756v-6.605h0.756v3.805l3.548-3.805h0.893l-2.612,2.874
					l2.811,3.731h-0.92L160.012,357.469z"/>
			</g>
		</g>
		<g>
			<path fill="#33B673" d="M104.775,339.737l-0.057-0.109c-0.776-1.449-6.597-11.398-20.908-14.351
				c-2.521-0.519-5.269-0.844-8.333-0.844h-8.384c5.145,8.502,13.938,17.347,28.303,17.347h10.244h0.194L104.775,339.737z"/>
			<path fill="#33B673" d="M110.023,324.32l-0.058-0.111c-0.774-1.448-6.597-11.4-20.907-14.351
				c-2.519-0.519-5.269-0.845-8.331-0.845H55.549c0,0,2.631,10.062,10.636,10.062h9.292c3.064,0,5.812,0.325,8.333,0.844
				c14.311,2.948,20.132,12.9,20.908,14.351l0.057,0.111l3.846,7.399h1.439h9.035L110.023,324.32z"/>
			<path fill="#33B673" d="M139.746,321.492c-1.391-0.697-3.606-1.681-4.952-2.008c-1.13-0.271-2.26-0.409-3.356-0.409
				c-8.614,0-13.133,8.497-13.179,8.583c-0.004,0.01-0.009,0.02-0.014,0.03l-7.324,14.092h13.454l4.8-9.247l0.002-0.004l0.813-1.564
				C130.005,330.935,133.357,323.303,139.746,321.492z"/>
		</g>
	</g>
</g>
</svg>
